<?xml version="1.0" encoding="utf-8"?>

<!DOCTYPE svg PUBLIC "-//W3C//DTD SVG 1.1//EN" "http://www.w3.org/Graphics/SVG/1.1/DTD/svg11.dtd">
<!-- Uploaded to: SVG Repo, www.svgrepo.com, Generator: SVG Repo Mixer Tools -->
<svg height="800px" width="800px" version="1.1" id="_x32_" xmlns="http://www.w3.org/2000/svg" xmlns:xlink="http://www.w3.org/1999/xlink" 
	 viewBox="0 0 512 512"  xml:space="preserve">
<style type="text/css">
	.st0{fill:#000000;}
</style>
<g>
	<path class="st0" d="M328.82,0c-92.715,0.009-167.855,75.15-167.866,167.854v65.366c-16.276-13.266-36.306-20.152-56.327-20.141
		c-21.148-0.02-42.568,7.549-59.558,22.779c-19.658,17.584-29.764,42.124-29.745,66.574c-0.02,21.137,7.55,42.547,22.76,59.538
		L172.36,512h324.315V167.854C496.666,75.15,421.536,0.009,328.82,0z M455.446,470.771H190.78L68.814,334.482
		c-8.254-9.241-12.24-20.584-12.26-32.048c0.031-13.287,5.375-26.312,16.015-35.855c9.25-8.263,20.573-12.24,32.059-12.26
		c13.277,0.02,26.311,5.365,35.854,16.014l4.137,4.64l0.503,0.564l-0.463-0.524c6.381,7.086,15.33,10.952,24.55,10.952
		c3.936,0,7.942-0.705,11.767-2.174c12.764-4.872,21.218-17.152,21.208-30.812v-85.126c0.01-35.028,14.142-66.554,37.092-89.534
		c22.98-22.95,54.516-37.082,89.544-37.092c35.029,0.01,66.554,14.142,89.534,37.092c22.95,22.98,37.082,54.506,37.092,89.534
		V470.771z"/>
</g>
</svg>